<?xml version="1.0" encoding="iso-8859-1"?>
<!-- Generator: Adobe Illustrator 16.0.0, SVG Export Plug-In . SVG Version: 6.00 Build 0)  -->
<!DOCTYPE svg PUBLIC "-//W3C//DTD SVG 1.1//EN" "http://www.w3.org/Graphics/SVG/1.1/DTD/svg11.dtd">
<svg version="1.1" id="Capa_1" xmlns="http://www.w3.org/2000/svg" xmlns:xlink="http://www.w3.org/1999/xlink" x="0px" y="0px"
	 width="748.07px" height="748.07px" viewBox="0 0 748.07 748.07" style="enable-background:new 0 0 748.07 748.07;"
	 xml:space="preserve">
<g>
	<g id="web_cam">
		<g>
			<path d="M536.976,332.922c0-87.839-73.095-159.318-162.94-159.318s-162.94,71.479-162.94,159.318
				c0,87.839,73.095,159.317,162.94,159.317S536.976,420.778,536.976,332.922z M245.601,332.922
				c0-69.251,57.619-125.594,128.452-125.594c70.832,0,128.45,56.343,128.45,125.594s-57.618,125.594-128.45,125.594
				C303.203,458.516,245.601,402.189,245.601,332.922z M526.092,558.48c91.835-51.7,153.943-148.434,153.943-259.283
				C680.035,134.216,542.774,0,374.035,0c-168.723,0-306,134.216-306,299.198c0,111.036,62.329,207.94,154.437,259.572
				l-79.608,134.812c-7.687,13.01-8.435,26.684-2.041,37.482c6.377,10.816,18.86,17.007,34.234,17.007h398.618
				c15.374,0,27.84-6.208,34.234-17.007c6.377-10.799,5.629-24.473-2.041-37.482L526.092,558.48z M102.524,299.198
				c0-146.376,121.802-265.473,271.511-265.473s271.511,119.097,271.511,265.473c0,146.375-121.802,265.473-271.511,265.473
				S102.524,445.591,102.524,299.198z M573.676,714.346H175.041c-1.786,0-3.062-0.204-3.878-0.425c0.221-0.8,0.681-1.99,1.565-3.486
				l80.543-136.41c37.075,15.629,77.874,24.37,120.747,24.37c43.078,0,84.046-8.843,121.257-24.608l80.696,136.648
				c0.885,1.514,1.344,2.687,1.564,3.486C576.737,714.142,575.462,714.346,573.676,714.346z"/>
		</g>
	</g>
</g>
<g>
</g>
<g>
</g>
<g>
</g>
<g>
</g>
<g>
</g>
<g>
</g>
<g>
</g>
<g>
</g>
<g>
</g>
<g>
</g>
<g>
</g>
<g>
</g>
<g>
</g>
<g>
</g>
<g>
</g>
</svg>
